<mxfile host="drawio-plugin" modified="2025-10-10T04:31:30.217Z" agent="Mozilla/5.0 (Windows NT 10.0; Win64; x64) AppleWebKit/537.36 (KHTML, like Gecko) Chrome/122.0.0.0 Safari/537.36" etag="hiKmJzmHyNd_S6Ln2bTZ" version="22.1.22" type="embed">
  <diagram id="23iRSUPoRavnBvh4doch" name="Page-1">
    <mxGraphModel dx="1684" dy="-432" grid="0" gridSize="10" guides="1" tooltips="1" connect="1" arrows="1" fold="1" page="0" pageScale="1" pageWidth="827" pageHeight="1169" background="none" math="0" shadow="0">
      <root>
        <mxCell id="0" />
        <mxCell id="1" parent="0" />
        <mxCell id="2" value="&lt;font style=&quot;font-size: 29px;&quot;&gt;Report Analyst&lt;/font&gt;" style="shape=umlActor;verticalLabelPosition=bottom;verticalAlign=top;html=1;outlineConnect=0;" parent="1" vertex="1">
          <mxGeometry x="-171" y="1500" width="100" height="190" as="geometry" />
        </mxCell>
        <mxCell id="52" value="&lt;font style=&quot;font-size: 29px;&quot;&gt;World Population DB&lt;/font&gt;" style="shape=datastore;whiteSpace=wrap;html=1;fillColor=#519e47;" parent="1" vertex="1">
          <mxGeometry x="1043" y="1413" width="450" height="514" as="geometry" />
        </mxCell>
        <mxCell id="100" value="&lt;font style=&quot;font-size: 23px;&quot;&gt;World Population System&lt;/font&gt;" style="shape=umlFrame;whiteSpace=wrap;html=1;pointerEvents=0;recursiveResize=0;container=1;collapsible=0;width=300;height=71;" parent="1" vertex="1">
          <mxGeometry y="1315" width="945" height="697" as="geometry" />
        </mxCell>
        <mxCell id="7" value="&lt;font style=&quot;font-size: 15px;&quot;&gt;&lt;br&gt;Generate &lt;br&gt;Population Reports&lt;/font&gt;" style="ellipse;whiteSpace=wrap;html=1;fillColor=#e6d0de;gradientColor=#d5739d;strokeColor=#996185;" parent="100" vertex="1">
          <mxGeometry x="94" y="289" width="170" height="80" as="geometry" />
        </mxCell>
        <mxCell id="35" value="&lt;span style=&quot;font-size: 14px;&quot; data-end=&quot;2373&quot; data-start=&quot;2336&quot;&gt;Display city and non-city &lt;br&gt;population by continent&lt;/span&gt;" style="ellipse;whiteSpace=wrap;html=1;" parent="100" vertex="1">
          <mxGeometry x="439" y="34" width="210" height="50" as="geometry" />
        </mxCell>
        <mxCell id="36" value="&lt;span style=&quot;font-size: 14px;&quot; data-end=&quot;2373&quot; data-start=&quot;2336&quot;&gt;Display city and non-city &lt;br&gt;population&amp;nbsp;by region&lt;br&gt;&lt;/span&gt;" style="ellipse;whiteSpace=wrap;html=1;" parent="100" vertex="1">
          <mxGeometry x="439" y="104" width="210" height="50" as="geometry" />
        </mxCell>
        <mxCell id="37" value="&lt;font style=&quot;font-size: 14px;&quot;&gt;Display city and non-city &lt;br&gt;population&amp;nbsp;by country&lt;/font&gt;" style="ellipse;whiteSpace=wrap;html=1;" parent="100" vertex="1">
          <mxGeometry x="439" y="174" width="210" height="50" as="geometry" />
        </mxCell>
        <mxCell id="38" value="&lt;span style=&quot;font-size: 14px;&quot; data-end=&quot;2373&quot; data-start=&quot;2336&quot;&gt;Display Population &lt;br&gt;of the world&lt;/span&gt;" style="ellipse;whiteSpace=wrap;html=1;" parent="100" vertex="1">
          <mxGeometry x="439" y="244" width="210" height="50" as="geometry" />
        </mxCell>
        <mxCell id="39" value="&lt;span style=&quot;font-size: 14px;&quot; data-end=&quot;2781&quot; data-start=&quot;2744&quot;&gt;Display Population &lt;br&gt;of a Continent&lt;/span&gt;" style="ellipse;whiteSpace=wrap;html=1;" parent="100" vertex="1">
          <mxGeometry x="439" y="324" width="210" height="50" as="geometry" />
        </mxCell>
        <mxCell id="40" value="&lt;span style=&quot;font-size: 14px;&quot; data-end=&quot;2781&quot; data-start=&quot;2744&quot;&gt;Display Population &lt;br&gt;of a Country&lt;/span&gt;" style="ellipse;whiteSpace=wrap;html=1;" parent="100" vertex="1">
          <mxGeometry x="439" y="464" width="210" height="50" as="geometry" />
        </mxCell>
        <mxCell id="44" value="&lt;span style=&quot;font-size: 14px;&quot; data-end=&quot;2781&quot; data-start=&quot;2744&quot;&gt;Display Population &lt;br&gt;of a Region&lt;/span&gt;" style="ellipse;whiteSpace=wrap;html=1;" parent="100" vertex="1">
          <mxGeometry x="439" y="394" width="210" height="50" as="geometry" />
        </mxCell>
        <mxCell id="45" value="&lt;span style=&quot;font-size: 14px;&quot; data-end=&quot;2781&quot; data-start=&quot;2744&quot;&gt;Display Population &lt;br&gt;of a District&lt;/span&gt;" style="ellipse;whiteSpace=wrap;html=1;" parent="100" vertex="1">
          <mxGeometry x="439" y="534" width="210" height="50" as="geometry" />
        </mxCell>
        <mxCell id="46" value="&lt;span style=&quot;font-size: 14px;&quot; data-end=&quot;2781&quot; data-start=&quot;2744&quot;&gt;Display Population &lt;br&gt;of a City&lt;/span&gt;" style="ellipse;whiteSpace=wrap;html=1;" parent="100" vertex="1">
          <mxGeometry x="439" y="604" width="210" height="50" as="geometry" />
        </mxCell>
        <mxCell id="84" value="&lt;font style=&quot;font-size: 13px;&quot;&gt;&amp;lt;&amp;lt;include&amp;gt;&amp;gt;&lt;/font&gt;" style="html=1;verticalAlign=bottom;labelBackgroundColor=none;endArrow=open;endFill=0;dashed=1;rounded=0;entryX=0;entryY=0.5;entryDx=0;entryDy=0;exitX=1;exitY=0.5;exitDx=0;exitDy=0;" parent="100" source="7" target="35" edge="1">
          <mxGeometry width="160" relative="1" as="geometry">
            <mxPoint x="164" y="284" as="sourcePoint" />
            <mxPoint x="324" y="284" as="targetPoint" />
          </mxGeometry>
        </mxCell>
        <mxCell id="85" value="&lt;font style=&quot;font-size: 13px;&quot;&gt;&amp;lt;&amp;lt;include&amp;gt;&amp;gt;&lt;/font&gt;" style="html=1;verticalAlign=bottom;labelBackgroundColor=none;endArrow=open;endFill=0;dashed=1;rounded=0;entryX=0;entryY=0.5;entryDx=0;entryDy=0;exitX=1;exitY=0.5;exitDx=0;exitDy=0;" parent="100" source="7" target="36" edge="1">
          <mxGeometry width="160" relative="1" as="geometry">
            <mxPoint x="214" y="234" as="sourcePoint" />
            <mxPoint x="374" y="234" as="targetPoint" />
          </mxGeometry>
        </mxCell>
        <mxCell id="86" value="&lt;font style=&quot;font-size: 13px;&quot;&gt;&amp;lt;&amp;lt;include&amp;gt;&amp;gt;&lt;/font&gt;" style="html=1;verticalAlign=bottom;labelBackgroundColor=none;endArrow=open;endFill=0;dashed=1;rounded=0;exitX=1;exitY=0.5;exitDx=0;exitDy=0;entryX=0;entryY=0.5;entryDx=0;entryDy=0;" parent="100" source="7" target="37" edge="1">
          <mxGeometry width="160" relative="1" as="geometry">
            <mxPoint x="214" y="234" as="sourcePoint" />
            <mxPoint x="374" y="234" as="targetPoint" />
          </mxGeometry>
        </mxCell>
        <mxCell id="87" value="&lt;font style=&quot;font-size: 13px;&quot;&gt;&amp;lt;&amp;lt;include&amp;gt;&amp;gt;&lt;/font&gt;" style="html=1;verticalAlign=bottom;labelBackgroundColor=none;endArrow=open;endFill=0;dashed=1;rounded=0;exitX=1;exitY=0.5;exitDx=0;exitDy=0;entryX=0;entryY=0.5;entryDx=0;entryDy=0;" parent="100" source="7" target="38" edge="1">
          <mxGeometry width="160" relative="1" as="geometry">
            <mxPoint x="214" y="234" as="sourcePoint" />
            <mxPoint x="374" y="234" as="targetPoint" />
          </mxGeometry>
        </mxCell>
        <mxCell id="88" value="&lt;font style=&quot;font-size: 13px;&quot;&gt;&amp;lt;&amp;lt;include&amp;gt;&amp;gt;&lt;/font&gt;" style="html=1;verticalAlign=bottom;labelBackgroundColor=none;endArrow=open;endFill=0;dashed=1;rounded=0;entryX=0;entryY=0.5;entryDx=0;entryDy=0;exitX=1;exitY=0.5;exitDx=0;exitDy=0;" parent="100" source="7" target="39" edge="1">
          <mxGeometry width="160" relative="1" as="geometry">
            <mxPoint x="264" y="324" as="sourcePoint" />
            <mxPoint x="374" y="234" as="targetPoint" />
          </mxGeometry>
        </mxCell>
        <mxCell id="89" value="&lt;font style=&quot;font-size: 13px;&quot;&gt;&amp;lt;&amp;lt;include&amp;gt;&amp;gt;&lt;/font&gt;" style="html=1;verticalAlign=bottom;labelBackgroundColor=none;endArrow=open;endFill=0;dashed=1;rounded=0;exitX=1;exitY=0.5;exitDx=0;exitDy=0;entryX=0;entryY=0.5;entryDx=0;entryDy=0;" parent="100" source="7" target="44" edge="1">
          <mxGeometry width="160" relative="1" as="geometry">
            <mxPoint x="224" y="244" as="sourcePoint" />
            <mxPoint x="384" y="244" as="targetPoint" />
          </mxGeometry>
        </mxCell>
        <mxCell id="90" value="&lt;font style=&quot;font-size: 13px;&quot;&gt;&amp;lt;&amp;lt;include&amp;gt;&amp;gt;&lt;/font&gt;" style="html=1;verticalAlign=bottom;labelBackgroundColor=none;endArrow=open;endFill=0;dashed=1;rounded=0;exitX=1;exitY=0.5;exitDx=0;exitDy=0;entryX=0;entryY=0.5;entryDx=0;entryDy=0;" parent="100" source="7" target="40" edge="1">
          <mxGeometry width="160" relative="1" as="geometry">
            <mxPoint x="224" y="244" as="sourcePoint" />
            <mxPoint x="384" y="244" as="targetPoint" />
          </mxGeometry>
        </mxCell>
        <mxCell id="91" value="&lt;font style=&quot;font-size: 13px;&quot;&gt;&amp;lt;&amp;lt;include&amp;gt;&amp;gt;&lt;/font&gt;" style="html=1;verticalAlign=bottom;labelBackgroundColor=none;endArrow=open;endFill=0;dashed=1;rounded=0;entryX=0;entryY=0.5;entryDx=0;entryDy=0;" parent="100" target="45" edge="1">
          <mxGeometry width="160" relative="1" as="geometry">
            <mxPoint x="264" y="334" as="sourcePoint" />
            <mxPoint x="384" y="464" as="targetPoint" />
          </mxGeometry>
        </mxCell>
        <mxCell id="92" value="&lt;font style=&quot;font-size: 13px;&quot;&gt;&amp;lt;&amp;lt;include&amp;gt;&amp;gt;&lt;/font&gt;" style="html=1;verticalAlign=bottom;labelBackgroundColor=none;endArrow=open;endFill=0;dashed=1;rounded=0;entryX=0;entryY=0.5;entryDx=0;entryDy=0;exitX=0.985;exitY=0.566;exitDx=0;exitDy=0;exitPerimeter=0;" parent="100" source="7" target="46" edge="1">
          <mxGeometry width="160" relative="1" as="geometry">
            <mxPoint x="204" y="434" as="sourcePoint" />
            <mxPoint x="364" y="434" as="targetPoint" />
          </mxGeometry>
        </mxCell>
        <mxCell id="104" value="" style="endArrow=none;html=1;rounded=0;entryX=0;entryY=0.5;entryDx=0;entryDy=0;exitX=1;exitY=0.3333333333333333;exitDx=0;exitDy=0;exitPerimeter=0;" parent="1" source="2" target="7" edge="1">
          <mxGeometry width="50" height="50" relative="1" as="geometry">
            <mxPoint x="-450" y="800" as="sourcePoint" />
            <mxPoint x="190" y="960" as="targetPoint" />
          </mxGeometry>
        </mxCell>
        <mxCell id="133" value="" style="endArrow=none;html=1;rounded=0;exitX=1;exitY=0.5;exitDx=0;exitDy=0;entryX=0;entryY=0.5;entryDx=0;entryDy=0;" parent="1" source="35" target="52" edge="1">
          <mxGeometry width="50" height="50" relative="1" as="geometry">
            <mxPoint x="920" y="1640" as="sourcePoint" />
            <mxPoint x="1190" y="890" as="targetPoint" />
          </mxGeometry>
        </mxCell>
        <mxCell id="134" value="" style="endArrow=none;html=1;rounded=0;exitX=1;exitY=0.5;exitDx=0;exitDy=0;entryX=0;entryY=0.5;entryDx=0;entryDy=0;" parent="1" source="36" target="52" edge="1">
          <mxGeometry width="50" height="50" relative="1" as="geometry">
            <mxPoint x="950" y="1210" as="sourcePoint" />
            <mxPoint x="1000" y="1160" as="targetPoint" />
          </mxGeometry>
        </mxCell>
        <mxCell id="135" value="" style="endArrow=none;html=1;rounded=0;exitX=1;exitY=0.5;exitDx=0;exitDy=0;entryX=0;entryY=0.5;entryDx=0;entryDy=0;" parent="1" source="37" target="52" edge="1">
          <mxGeometry width="50" height="50" relative="1" as="geometry">
            <mxPoint x="950" y="1210" as="sourcePoint" />
            <mxPoint x="1000" y="1160" as="targetPoint" />
          </mxGeometry>
        </mxCell>
        <mxCell id="136" value="" style="endArrow=none;html=1;rounded=0;exitX=1;exitY=0.5;exitDx=0;exitDy=0;entryX=0;entryY=0.5;entryDx=0;entryDy=0;" parent="1" source="38" target="52" edge="1">
          <mxGeometry width="50" height="50" relative="1" as="geometry">
            <mxPoint x="950" y="1210" as="sourcePoint" />
            <mxPoint x="1000" y="1160" as="targetPoint" />
          </mxGeometry>
        </mxCell>
        <mxCell id="137" value="" style="endArrow=none;html=1;rounded=0;exitX=1;exitY=0.5;exitDx=0;exitDy=0;entryX=0;entryY=0.5;entryDx=0;entryDy=0;" parent="1" source="39" target="52" edge="1">
          <mxGeometry width="50" height="50" relative="1" as="geometry">
            <mxPoint x="950" y="1210" as="sourcePoint" />
            <mxPoint x="1130" y="1050" as="targetPoint" />
          </mxGeometry>
        </mxCell>
        <mxCell id="138" value="" style="endArrow=none;html=1;rounded=0;exitX=1;exitY=0.5;exitDx=0;exitDy=0;entryX=0;entryY=0.5;entryDx=0;entryDy=0;" parent="1" source="44" target="52" edge="1">
          <mxGeometry width="50" height="50" relative="1" as="geometry">
            <mxPoint x="950" y="1460" as="sourcePoint" />
            <mxPoint x="1150" y="930" as="targetPoint" />
          </mxGeometry>
        </mxCell>
        <mxCell id="139" value="" style="endArrow=none;html=1;rounded=0;exitX=1;exitY=0.5;exitDx=0;exitDy=0;entryX=0;entryY=0.5;entryDx=0;entryDy=0;" parent="1" source="40" target="52" edge="1">
          <mxGeometry width="50" height="50" relative="1" as="geometry">
            <mxPoint x="950" y="1460" as="sourcePoint" />
            <mxPoint x="1200" y="960" as="targetPoint" />
          </mxGeometry>
        </mxCell>
        <mxCell id="140" value="" style="endArrow=none;html=1;rounded=0;exitX=1;exitY=0.5;exitDx=0;exitDy=0;entryX=0;entryY=0.5;entryDx=0;entryDy=0;" parent="1" source="45" target="52" edge="1">
          <mxGeometry width="50" height="50" relative="1" as="geometry">
            <mxPoint x="950" y="1460" as="sourcePoint" />
            <mxPoint x="1000" y="1410" as="targetPoint" />
          </mxGeometry>
        </mxCell>
        <mxCell id="141" value="" style="endArrow=none;html=1;rounded=0;exitX=1;exitY=0.5;exitDx=0;exitDy=0;entryX=0;entryY=0.5;entryDx=0;entryDy=0;" parent="1" source="46" target="52" edge="1">
          <mxGeometry width="50" height="50" relative="1" as="geometry">
            <mxPoint x="950" y="1460" as="sourcePoint" />
            <mxPoint x="1170" y="910" as="targetPoint" />
          </mxGeometry>
        </mxCell>
      </root>
    </mxGraphModel>
  </diagram>
</mxfile>
